<mxfile host="app.diagrams.net" modified="2024-04-06T14:47:33.359Z" agent="Mozilla/5.0 (X11; Linux x86_64) AppleWebKit/537.36 (KHTML, like Gecko) Chrome/123.0.0.0 Safari/537.36" etag="vZAJyX6wS6UIQu3oRFv2" version="24.2.2" type="device">
  <diagram name="Page-1" id="YfUc9naM1VDZPnNG6dpG">
    <mxGraphModel dx="1753" dy="961" grid="0" gridSize="10" guides="1" tooltips="1" connect="1" arrows="1" fold="1" page="0" pageScale="1" pageWidth="827" pageHeight="1169" math="0" shadow="0">
      <root>
        <mxCell id="0" />
        <mxCell id="1" parent="0" />
        <mxCell id="hlVn3Kzb3NpEhKokdLas-1" value="" style="ellipse;whiteSpace=wrap;html=1;aspect=fixed;" vertex="1" parent="1">
          <mxGeometry x="242" y="243" width="80" height="80" as="geometry" />
        </mxCell>
        <mxCell id="hlVn3Kzb3NpEhKokdLas-2" value="" style="endArrow=classic;html=1;rounded=0;entryX=0;entryY=0;entryDx=0;entryDy=0;" edge="1" parent="1" target="hlVn3Kzb3NpEhKokdLas-1">
          <mxGeometry relative="1" as="geometry">
            <mxPoint x="210" y="201" as="sourcePoint" />
            <mxPoint x="360" y="310" as="targetPoint" />
          </mxGeometry>
        </mxCell>
        <mxCell id="hlVn3Kzb3NpEhKokdLas-4" value="" style="ellipse;whiteSpace=wrap;html=1;aspect=fixed;" vertex="1" parent="1">
          <mxGeometry x="446" y="243" width="80" height="80" as="geometry" />
        </mxCell>
        <mxCell id="hlVn3Kzb3NpEhKokdLas-5" value="" style="endArrow=classic;html=1;rounded=0;entryX=0;entryY=0.5;entryDx=0;entryDy=0;exitX=1;exitY=0.5;exitDx=0;exitDy=0;" edge="1" parent="1" source="hlVn3Kzb3NpEhKokdLas-1" target="hlVn3Kzb3NpEhKokdLas-4">
          <mxGeometry width="50" height="50" relative="1" as="geometry">
            <mxPoint x="460" y="335" as="sourcePoint" />
            <mxPoint x="510" y="285" as="targetPoint" />
          </mxGeometry>
        </mxCell>
        <mxCell id="hlVn3Kzb3NpEhKokdLas-6" value="/ cli ? route(vroute)" style="text;html=1;align=center;verticalAlign=middle;whiteSpace=wrap;rounded=0;" vertex="1" parent="1">
          <mxGeometry x="329" y="249" width="110" height="30" as="geometry" />
        </mxCell>
        <mxCell id="hlVn3Kzb3NpEhKokdLas-7" value="" style="endArrow=classic;html=1;rounded=0;entryX=0;entryY=0.5;entryDx=0;entryDy=0;exitX=1;exitY=0.5;exitDx=0;exitDy=0;" edge="1" parent="1" target="hlVn3Kzb3NpEhKokdLas-8" source="hlVn3Kzb3NpEhKokdLas-4">
          <mxGeometry width="50" height="50" relative="1" as="geometry">
            <mxPoint x="571" y="283" as="sourcePoint" />
            <mxPoint x="629" y="333" as="targetPoint" />
          </mxGeometry>
        </mxCell>
        <mxCell id="hlVn3Kzb3NpEhKokdLas-8" value="" style="ellipse;whiteSpace=wrap;html=1;aspect=fixed;" vertex="1" parent="1">
          <mxGeometry x="672" y="243" width="80" height="80" as="geometry" />
        </mxCell>
        <mxCell id="hlVn3Kzb3NpEhKokdLas-9" value="[vroute = &quot;/register&quot;] /" style="text;html=1;align=center;verticalAlign=middle;whiteSpace=wrap;rounded=0;" vertex="1" parent="1">
          <mxGeometry x="536" y="249" width="126" height="30" as="geometry" />
        </mxCell>
        <mxCell id="hlVn3Kzb3NpEhKokdLas-10" value="" style="ellipse;whiteSpace=wrap;html=1;aspect=fixed;" vertex="1" parent="1">
          <mxGeometry x="531" y="417" width="80" height="80" as="geometry" />
        </mxCell>
        <mxCell id="hlVn3Kzb3NpEhKokdLas-11" value="" style="endArrow=classic;html=1;rounded=0;entryX=1;entryY=0;entryDx=0;entryDy=0;exitX=0;exitY=1;exitDx=0;exitDy=0;" edge="1" parent="1" source="hlVn3Kzb3NpEhKokdLas-8" target="hlVn3Kzb3NpEhKokdLas-10">
          <mxGeometry width="50" height="50" relative="1" as="geometry">
            <mxPoint x="793" y="425" as="sourcePoint" />
            <mxPoint x="843" y="375" as="targetPoint" />
          </mxGeometry>
        </mxCell>
        <mxCell id="hlVn3Kzb3NpEhKokdLas-12" value="/ utilisateur, error = addUser(route.body)" style="text;html=1;align=center;verticalAlign=middle;whiteSpace=wrap;rounded=0;" vertex="1" parent="1">
          <mxGeometry x="641" y="363" width="217" height="30" as="geometry" />
        </mxCell>
        <mxCell id="hlVn3Kzb3NpEhKokdLas-14" value="" style="endArrow=classic;html=1;rounded=0;entryX=1;entryY=1;entryDx=0;entryDy=0;exitX=0;exitY=0.5;exitDx=0;exitDy=0;" edge="1" parent="1" source="hlVn3Kzb3NpEhKokdLas-10" target="hlVn3Kzb3NpEhKokdLas-1">
          <mxGeometry width="50" height="50" relative="1" as="geometry">
            <mxPoint x="592" y="424" as="sourcePoint" />
            <mxPoint x="642" y="374" as="targetPoint" />
          </mxGeometry>
        </mxCell>
        <mxCell id="hlVn3Kzb3NpEhKokdLas-15" value="[error != null] /&lt;div&gt;cli ! send(400,&lt;/div&gt;&lt;div&gt;{success: false, message: error})&lt;/div&gt;" style="text;html=1;align=center;verticalAlign=middle;whiteSpace=wrap;rounded=0;" vertex="1" parent="1">
          <mxGeometry x="419" y="350" width="183" height="30" as="geometry" />
        </mxCell>
        <mxCell id="hlVn3Kzb3NpEhKokdLas-17" value="" style="endArrow=classic;html=1;rounded=0;entryX=0.5;entryY=1;entryDx=0;entryDy=0;exitX=0;exitY=1;exitDx=0;exitDy=0;" edge="1" parent="1" source="hlVn3Kzb3NpEhKokdLas-10" target="hlVn3Kzb3NpEhKokdLas-1">
          <mxGeometry width="50" height="50" relative="1" as="geometry">
            <mxPoint x="592" y="424" as="sourcePoint" />
            <mxPoint x="356.99999999999795" y="457" as="targetPoint" />
            <Array as="points">
              <mxPoint x="379" y="441" />
            </Array>
          </mxGeometry>
        </mxCell>
        <mxCell id="hlVn3Kzb3NpEhKokdLas-18" value="[error == null] /&lt;div&gt;cli ! send(201,&lt;/div&gt;&lt;div&gt;{success: true, token: signPayload(utilisateur.pseudo)}&lt;/div&gt;" style="text;html=1;align=center;verticalAlign=middle;whiteSpace=wrap;rounded=0;" vertex="1" parent="1">
          <mxGeometry x="196" y="451" width="294" height="30" as="geometry" />
        </mxCell>
        <mxCell id="hlVn3Kzb3NpEhKokdLas-19" value="" style="ellipse;whiteSpace=wrap;html=1;aspect=fixed;" vertex="1" parent="1">
          <mxGeometry x="1195" y="246" width="80" height="80" as="geometry" />
        </mxCell>
        <mxCell id="hlVn3Kzb3NpEhKokdLas-20" value="" style="endArrow=classic;html=1;rounded=0;entryX=0;entryY=0;entryDx=0;entryDy=0;" edge="1" parent="1" target="hlVn3Kzb3NpEhKokdLas-19">
          <mxGeometry width="50" height="50" relative="1" as="geometry">
            <mxPoint x="1157" y="186" as="sourcePoint" />
            <mxPoint x="1440" y="359" as="targetPoint" />
          </mxGeometry>
        </mxCell>
        <mxCell id="hlVn3Kzb3NpEhKokdLas-21" value="" style="ellipse;whiteSpace=wrap;html=1;aspect=fixed;" vertex="1" parent="1">
          <mxGeometry x="1528" y="246" width="80" height="80" as="geometry" />
        </mxCell>
        <mxCell id="hlVn3Kzb3NpEhKokdLas-22" value="" style="endArrow=classic;html=1;rounded=0;entryX=0;entryY=0.5;entryDx=0;entryDy=0;exitX=1;exitY=0.5;exitDx=0;exitDy=0;" edge="1" parent="1" source="hlVn3Kzb3NpEhKokdLas-19" target="hlVn3Kzb3NpEhKokdLas-21">
          <mxGeometry width="50" height="50" relative="1" as="geometry">
            <mxPoint x="1371" y="343" as="sourcePoint" />
            <mxPoint x="1421" y="293" as="targetPoint" />
          </mxGeometry>
        </mxCell>
        <mxCell id="hlVn3Kzb3NpEhKokdLas-23" value="/ ? response = srv ! route(POST, &quot;/register&quot;,&lt;div&gt;pseudo, motDePasse)&lt;/div&gt;" style="text;html=1;align=center;verticalAlign=middle;whiteSpace=wrap;rounded=0;" vertex="1" parent="1">
          <mxGeometry x="1283" y="252" width="237" height="30" as="geometry" />
        </mxCell>
        <mxCell id="hlVn3Kzb3NpEhKokdLas-25" value="" style="endArrow=classic;html=1;rounded=0;entryX=1;entryY=0;entryDx=0;entryDy=0;exitX=0.5;exitY=1;exitDx=0;exitDy=0;" edge="1" parent="1" source="hlVn3Kzb3NpEhKokdLas-21" target="hlVn3Kzb3NpEhKokdLas-33">
          <mxGeometry width="50" height="50" relative="1" as="geometry">
            <mxPoint x="1397" y="343" as="sourcePoint" />
            <mxPoint x="1568" y="408" as="targetPoint" />
            <Array as="points" />
          </mxGeometry>
        </mxCell>
        <mxCell id="hlVn3Kzb3NpEhKokdLas-26" value="[response.body.success == true &amp;amp;&amp;amp; response.body.token != null] /&lt;div&gt;localStorage.setItem(&#39;token&#39;, response.body.token)&lt;/div&gt;" style="text;html=1;align=center;verticalAlign=middle;whiteSpace=wrap;rounded=0;" vertex="1" parent="1">
          <mxGeometry x="1495" y="402" width="360" height="30" as="geometry" />
        </mxCell>
        <mxCell id="hlVn3Kzb3NpEhKokdLas-28" value="" style="endArrow=classic;html=1;rounded=0;exitX=0;exitY=1;exitDx=0;exitDy=0;entryX=1;entryY=0;entryDx=0;entryDy=0;" edge="1" parent="1" source="hlVn3Kzb3NpEhKokdLas-21" target="hlVn3Kzb3NpEhKokdLas-32">
          <mxGeometry width="50" height="50" relative="1" as="geometry">
            <mxPoint x="1510" y="324" as="sourcePoint" />
            <mxPoint x="1560" y="274" as="targetPoint" />
            <Array as="points">
              <mxPoint x="1391" y="406" />
            </Array>
          </mxGeometry>
        </mxCell>
        <mxCell id="hlVn3Kzb3NpEhKokdLas-29" value="[response.body.success == false || response.body.token == null] /&lt;div&gt;setErrorMessage(response.body.message)&lt;/div&gt;" style="text;html=1;align=center;verticalAlign=middle;whiteSpace=wrap;rounded=0;" vertex="1" parent="1">
          <mxGeometry x="1070" y="372" width="357" height="30" as="geometry" />
        </mxCell>
        <mxCell id="hlVn3Kzb3NpEhKokdLas-32" value="" style="ellipse;whiteSpace=wrap;html=1;aspect=fixed;" vertex="1" parent="1">
          <mxGeometry x="1150" y="445" width="80" height="80" as="geometry" />
        </mxCell>
        <mxCell id="hlVn3Kzb3NpEhKokdLas-30" value="" style="ellipse;whiteSpace=wrap;html=1;aspect=fixed;" vertex="1" parent="1">
          <mxGeometry x="1155" y="450" width="70" height="70" as="geometry" />
        </mxCell>
        <mxCell id="hlVn3Kzb3NpEhKokdLas-33" value="" style="ellipse;whiteSpace=wrap;html=1;aspect=fixed;" vertex="1" parent="1">
          <mxGeometry x="1378" y="445" width="80" height="80" as="geometry" />
        </mxCell>
        <mxCell id="hlVn3Kzb3NpEhKokdLas-35" value="" style="endArrow=classic;html=1;rounded=0;entryX=1;entryY=0.5;entryDx=0;entryDy=0;exitX=0;exitY=0.5;exitDx=0;exitDy=0;" edge="1" parent="1" source="hlVn3Kzb3NpEhKokdLas-33" target="hlVn3Kzb3NpEhKokdLas-32">
          <mxGeometry width="50" height="50" relative="1" as="geometry">
            <mxPoint x="1369" y="581" as="sourcePoint" />
            <mxPoint x="1419" y="531" as="targetPoint" />
          </mxGeometry>
        </mxCell>
        <mxCell id="hlVn3Kzb3NpEhKokdLas-36" value="/ cli ! redirect(&quot;/profil&quot;)" style="text;html=1;align=center;verticalAlign=middle;whiteSpace=wrap;rounded=0;" vertex="1" parent="1">
          <mxGeometry x="1244" y="490" width="128" height="30" as="geometry" />
        </mxCell>
      </root>
    </mxGraphModel>
  </diagram>
</mxfile>
